<svg width="60" height="60" viewBox="0 0 60 60" fill="none" xmlns="http://www.w3.org/2000/svg">
<g clip-path="url(#clip0)">
<path d="M37 34.1362V16H39C40.6567 16 42 14.6567 42 13V11C42 9.34326 40.6567 8 39 8H37V3C37 1.34326 35.6567 0 34 0H26C24.3433 0 23 1.34326 23 3V8H21C19.3433 8 18 9.34326 18 11V13C18 14.6567 19.3433 16 21 16H23V34.1328C14.4375 35.1216 7.98193 42.3809 8 51C8.00537 55.9683 12.0317 59.9946 17 60H43C45.3882 60.0034 47.6792 59.0562 49.3677 57.3677C51.0562 55.6792 52.0034 53.3877 52 51C51.9844 42.394 45.5454 35.1553 37 34.1362ZM25 3C25 2.44775 25.4478 2 26 2H34C34.5522 2 35 2.44775 35 3V8H25V3ZM20 13V11C20 10.4478 20.4478 10 21 10H39C39.5522 10 40 10.4478 40 11V13C40 13.5522 39.5522 14 39 14H21C20.4478 14 20 13.5522 20 13ZM35 16V35C35 35.0361 35.0171 35.0659 35.02 35.1001C35.0493 35.5962 35.4424 35.9932 35.938 36.0278C40.1401 36.292 44.0361 38.3149 46.6689 41.6001C46.2778 41.4482 45.896 41.2798 45.498 41.0928C44.0933 40.3354 42.5259 39.9297 40.9302 39.9102C39.4517 39.8809 38.0005 40.3105 36.7769 41.1411C34.8809 42.4058 32.4102 42.4058 30.5142 41.1411C29.2905 40.3101 27.8389 39.8799 26.3599 39.9102C24.8794 39.8809 23.4263 40.3115 22.2002 41.1421C21.2817 41.7837 20.1831 42.1157 19.063 42.0898C17.9458 42.1157 16.8496 41.7827 15.936 41.1392C15.4546 40.8354 14.9473 40.5747 14.4199 40.3599C17.0044 37.7954 20.4316 36.2559 24.0649 36.0278C24.5605 35.9937 24.9536 35.5967 24.9829 35.1011C24.9829 35.0659 25.0029 35.0361 25.0029 35.001V16H35ZM47.9551 55.9512C46.6411 57.2651 44.8584 58.0024 43 58H17C13.1357 57.9956 10.0044 54.8643 10 51C9.99658 47.7642 11.0469 44.6147 12.9912 42.0278C13.6728 42.1855 14.3208 42.4653 14.9028 42.854C16.127 43.6875 17.5796 44.1196 19.0601 44.0898C20.5415 44.1196 21.9961 43.6895 23.2231 42.8579C25.1191 41.5938 27.5898 41.5938 29.4858 42.8579C32.0151 44.5015 35.2749 44.5015 37.8042 42.8579C38.7183 42.2168 39.8135 41.8853 40.9302 41.9111C42.2329 41.9316 43.5107 42.2749 44.6479 42.9111C45.7783 43.4927 47.0029 43.8687 48.2651 44.021C49.4043 46.1709 49.9995 48.5669 50 51C50.0024 52.8564 49.2671 54.6377 47.9551 55.9512Z" fill="#F7654A"/>
<path d="M16 45C14.3433 45 13 46.3433 13 48C13 49.6567 14.3433 51 16 51C17.6567 51 19 49.6567 19 48C19 46.3433 17.6567 45 16 45ZM16 49C15.4478 49 15 48.5522 15 48C15 47.4478 15.4478 47 16 47C16.5522 47 17 47.4478 17 48C17 48.5522 16.5522 49 16 49Z" fill="#F7654A"/>
<path d="M27 50C25.3433 50 24 51.3433 24 53C24 54.6567 25.3433 56 27 56C28.6567 56 30 54.6567 30 53C30 51.3433 28.6567 50 27 50ZM27 54C26.4478 54 26 53.5522 26 53C26 52.4478 26.4478 52 27 52C27.5522 52 28 52.4478 28 53C28 53.5522 27.5522 54 27 54Z" fill="#F7654A"/>
<path d="M44 45C42.3433 45 41 46.3433 41 48C41 49.6567 42.3433 51 44 51C45.6567 51 47 49.6567 47 48C47 46.3433 45.6567 45 44 45ZM44 49C43.4478 49 43 48.5522 43 48C43 47.4478 43.4478 47 44 47C44.5522 47 45 47.4478 45 48C45 48.5522 44.5522 49 44 49Z" fill="#F7654A"/>
</g>
<defs>
<clipPath id="clip0">
<rect width="60" height="60" fill="white"/>
</clipPath>
</defs>
</svg>
