<svg width="60" height="60" viewBox="0 0 60 60" fill="none" xmlns="http://www.w3.org/2000/svg">
<g clip-path="url(#clip0)">
<path d="M54.5149 47.8703C54.4356 47.3959 54.427 46.9125 54.4886 46.4357L54.8918 43.3324C55.0786 41.9155 54.8154 40.4751 54.1384 39.2163L52.7898 36.6978C52.3078 35.802 52.1186 34.7778 52.249 33.7689L52.5868 31.1184C52.7291 30.0001 52.5949 28.8636 52.195 27.8092L51.3452 25.5835L53.4591 24.7031C54.9783 24.0739 56.0789 22.7224 56.3876 21.1077L59.1751 6.54243C59.8582 5.15273 59.3533 3.47114 58.0175 2.68767L56.3211 1.7093C54.9142 0.912452 53.1285 1.39161 52.3097 2.78561C52.2495 2.88832 52.2084 3.00058 52.1884 3.1181L50.0262 16.6678C49.8924 17.4928 49.4094 18.2199 48.7015 18.6637L48.6733 18.5892C48.6733 8.32242 40.3504 0 30.0841 0C19.8173 0 11.4949 8.32242 11.4949 18.5892L11.4653 18.6666C10.7573 18.2232 10.2743 17.4962 10.1406 16.6716L7.97935 3.1181C7.96024 2.99867 7.91963 2.88354 7.85896 2.77844C7.04158 1.37967 5.25011 0.899554 3.84274 1.70261L2.1473 2.68098C0.808241 3.46541 0.304243 5.15177 0.992642 6.54243L3.78303 21.1202C4.09259 22.7315 5.19088 24.0801 6.70669 24.7088L8.82492 25.5893L7.97266 27.8035C7.56994 28.8631 7.4357 30.0058 7.5814 31.1299L7.92345 33.7411C8.05483 34.7458 7.86947 35.7667 7.39318 36.661L6.0159 39.2703C5.34136 40.5353 5.08387 41.9814 5.28117 43.4017L5.68484 46.3731C5.75172 46.8609 5.74408 47.3553 5.66239 47.8407L1.46416 55.0046C0.851714 56.0508 0.945347 57.3665 1.70063 58.3152C2.45591 59.2645 3.71662 59.651 4.87415 59.2888L11.44 57.2342C12.1781 57.0531 12.9482 57.045 13.6901 57.2108L19.7199 58.5737C20.703 58.793 21.722 58.7954 22.7061 58.5804L28.9371 57.205C29.6799 57.0426 30.45 57.0541 31.1876 57.238L36.5439 58.588C37.3641 58.7949 38.2154 58.8474 39.0548 58.7438L45.2652 57.9799C45.6096 57.9374 45.9579 57.9321 46.3033 57.9641L55.9132 59.9376C56.1133 59.9792 56.3178 59.9997 56.5227 60.0002C57.5723 59.994 58.5387 59.4279 59.0575 58.5154C59.5759 57.6025 59.5678 56.4827 59.036 55.5779L54.5149 47.8703ZM51.9576 16.9788L54.0864 3.64169C54.3897 3.26381 54.9219 3.16014 55.3447 3.39709L57.0344 4.37547C57.2627 4.50493 57.4295 4.72134 57.4968 4.97501C57.5642 5.22916 57.5264 5.49955 57.3922 5.72552C57.3387 5.81915 57.301 5.92138 57.2809 6.02792L54.4642 20.7346C54.2803 21.7044 53.6211 22.517 52.71 22.8968L50.6444 23.7539L49.4147 20.533C50.7781 19.8188 51.7216 18.4998 51.9576 16.9788ZM7.45385 22.8959C6.54666 22.5175 5.88979 21.7092 5.70443 20.7437L2.88491 6.02601C2.86484 5.91947 2.8271 5.81724 2.7736 5.72361C2.63983 5.49812 2.60209 5.22868 2.66897 4.97501C2.73538 4.72182 2.90115 4.50541 3.12854 4.37547L4.8173 3.39709C5.24056 3.15728 5.77465 3.25951 6.07944 3.63882L8.21009 16.9797C8.44608 18.5013 9.39007 19.8203 10.754 20.534L9.52431 23.7548L7.45385 22.8959ZM57.2976 57.6283C57.0755 57.9464 56.6847 58.1007 56.3054 58.0195L46.6496 56.0355C46.6167 56.0289 46.5842 56.0241 46.5517 56.0198C46.3238 55.9973 46.094 55.9859 45.8671 55.9859C45.5877 55.9859 45.3087 56.0031 45.0316 56.0375L38.8236 56.8018C38.224 56.8744 37.6154 56.8367 37.0292 56.69L31.6725 55.34C30.6402 55.0811 29.5615 55.0648 28.5215 55.2932L22.2862 56.6685C21.584 56.8228 20.8569 56.8214 20.1551 56.6638L14.1234 55.3018C13.0642 55.0667 11.965 55.0834 10.9135 55.351L4.29085 57.4181C3.90484 57.5428 3.48206 57.4128 3.23317 57.0923C2.97424 56.7789 2.94271 56.336 3.15386 55.9887L7.43522 48.6743C7.48968 48.5807 7.52838 48.4789 7.54988 48.3729C7.6994 47.6262 7.72329 46.8599 7.6201 46.1051L7.21642 43.1337C7.0755 42.1195 7.25894 41.0866 7.74049 40.1828L9.12206 37.5768C9.78944 36.3242 10.0488 34.8944 9.86349 33.487L9.52431 30.8719C9.42112 30.0694 9.51762 29.2534 9.80521 28.4972L13.3877 19.1166C13.4297 19.0067 13.4512 18.8897 13.4517 18.7722C13.4517 9.58648 20.8979 2.13972 30.0841 2.13972C39.2698 2.13972 46.7165 9.58648 46.7165 18.7722C46.716 18.8911 46.7375 19.0091 46.7801 19.1204L50.3649 28.5072C50.651 29.2601 50.748 30.0717 50.6472 30.871L50.308 33.5214C50.1255 34.9335 50.3902 36.3672 51.0643 37.6217L52.4124 40.1398C52.8954 41.0374 53.0846 42.064 52.9522 43.0749L52.5495 46.1787C52.4521 46.9196 52.4774 47.672 52.6245 48.4053C52.6465 48.5114 52.6857 48.6136 52.7401 48.7077L57.3463 56.563C57.5484 56.8964 57.5288 57.3187 57.2976 57.6321V57.6283Z" fill="#F7654A"/>
<path d="M3.66789 31.491C5.28881 31.491 6.60302 30.1768 6.60302 28.5559C6.60302 26.9349 5.28881 25.6207 3.66789 25.6207C2.0465 25.6207 0.732758 26.9349 0.732758 28.5559C0.732758 30.1768 2.0465 31.491 3.66789 31.491ZM3.66789 27.5775C4.2082 27.5775 4.64627 28.0156 4.64627 28.5559C4.64627 29.0962 4.2082 29.5342 3.66789 29.5342C3.12711 29.5342 2.68951 29.0962 2.68951 28.5559C2.68951 28.0156 3.12711 27.5775 3.66789 27.5775Z" fill="#F7654A"/>
<path d="M3.66789 38.3396C5.28881 38.3396 6.60302 37.0254 6.60302 35.4045C6.60302 33.7836 5.28881 32.4694 3.66789 32.4694C2.0465 32.4694 0.732758 33.7836 0.732758 35.4045C0.732758 37.0254 2.0465 38.3396 3.66789 38.3396ZM3.66789 34.4261C4.2082 34.4261 4.64627 34.8642 4.64627 35.4045C4.64627 35.9448 4.2082 36.3829 3.66789 36.3829C3.12711 36.3829 2.68951 35.9448 2.68951 35.4045C2.68951 34.8642 3.12711 34.4261 3.66789 34.4261Z" fill="#F7654A"/>
<path d="M56.5003 25.6207C54.8789 25.6207 53.5652 26.9349 53.5652 28.5559C53.5652 30.1768 54.8789 31.491 56.5003 31.491C58.1212 31.491 59.4354 30.1768 59.4354 28.5559C59.4354 26.9349 58.1212 25.6207 56.5003 25.6207ZM56.5003 29.5342C55.9595 29.5342 55.5219 29.0962 55.5219 28.5559C55.5219 28.0156 55.9595 27.5775 56.5003 27.5775C57.0406 27.5775 57.4787 28.0156 57.4787 28.5559C57.4787 29.0962 57.0406 29.5342 56.5003 29.5342Z" fill="#F7654A"/>
<path d="M56.5003 32.4694C54.8789 32.4694 53.5652 33.7836 53.5652 35.4045C53.5652 37.0254 54.8789 38.3396 56.5003 38.3396C58.1212 38.3396 59.4354 37.0254 59.4354 35.4045C59.4354 33.7836 58.1212 32.4694 56.5003 32.4694ZM56.5003 36.3829C55.9595 36.3829 55.5219 35.9448 55.5219 35.4045C55.5219 34.8642 55.9595 34.4261 56.5003 34.4261C57.0406 34.4261 57.4787 34.8642 57.4787 35.4045C57.4787 35.9448 57.0406 36.3829 56.5003 36.3829Z" fill="#F7654A"/>
<path d="M30.0841 6.05322C24.1402 6.05322 19.3219 10.8715 19.3219 16.8154C19.3219 22.7592 24.1402 27.5775 30.0841 27.5775C36.0274 27.5775 40.8462 22.7592 40.8462 16.8154C40.8391 10.8744 36.0246 6.06039 30.0841 6.05322ZM30.0841 25.6208C25.2209 25.6208 21.2787 21.6786 21.2787 16.8154C21.2787 11.9522 25.2209 8.00998 30.0841 8.00998C34.9468 8.00998 38.8895 11.9522 38.8895 16.8154C38.8838 21.6762 34.9449 25.6155 30.0841 25.6208Z" fill="#F7654A"/>
<path d="M37.1878 29.4287C36.4106 29.261 35.6047 29.2873 34.8398 29.5037C34.2876 29.6403 33.7191 29.6986 33.1511 29.6771C32.8081 29.5892 32.4808 29.4478 32.1813 29.2582C31.5531 28.8502 30.8312 28.6085 30.0841 28.5559C29.346 28.608 28.6347 28.8497 28.0175 29.2572C27.7289 29.4435 27.4131 29.583 27.0811 29.6704C26.4835 29.6981 25.8849 29.6437 25.3026 29.508C24.5124 29.2969 23.6831 29.2792 22.8848 29.4569C21.0279 29.9905 19.6425 31.5426 19.3219 33.4478C19.3219 34.965 21.2156 37.0914 23.932 37.7134C25.1224 37.9021 26.3378 37.8686 27.5168 37.6155C28.3648 37.4683 29.2232 37.3833 30.0841 37.3613C30.9368 37.3828 31.7872 37.4683 32.6275 37.6169C33.3947 37.754 34.171 37.8338 34.9502 37.8553C35.3572 37.8586 35.7637 37.8171 36.1617 37.7311C38.9215 37.11 40.8462 34.9751 40.8462 33.4478C40.8462 32.2162 39.4537 30.0908 37.1878 29.4287ZM32.0408 35.5612V34.4262H33.9976V35.8292C33.6551 35.7891 33.3006 35.739 32.9213 35.6816C32.6432 35.6391 32.3389 35.6004 32.0408 35.5612ZM35.9544 35.7566V33.4478C35.9544 32.9075 35.5163 32.4694 34.976 32.4694H31.0625C30.5217 32.4694 30.0841 32.9075 30.0841 33.4478V35.4046C29.1277 35.4246 28.1741 35.5154 27.2311 35.6754C26.2914 35.8832 25.3236 35.9277 24.3691 35.8068C23.0133 35.577 21.8577 34.6947 21.2787 33.4478C21.6188 32.4345 22.4257 31.6473 23.4466 31.3305C23.9496 31.2589 24.4618 31.2923 24.9514 31.4285C25.7091 31.5985 26.4868 31.6616 27.2622 31.6152C27.8674 31.5173 28.446 31.2966 28.9629 30.9665C29.3011 30.7401 29.6828 30.5853 30.0841 30.5127C30.5011 30.5858 30.8991 30.7448 31.2521 30.9794C31.7743 31.3086 32.3576 31.5283 32.9671 31.6253C33.7253 31.6735 34.4868 31.6057 35.2244 31.4237C35.6825 31.2875 36.1636 31.2479 36.638 31.3071C37.689 31.6167 38.5269 32.4135 38.8895 33.4478C38.3282 34.6359 37.2409 35.4905 35.9544 35.7557V35.7566Z" fill="#F7654A"/>
<path d="M30.084 12.902C27.9223 12.902 26.1705 14.6543 26.1705 16.8155C26.1705 18.9767 27.9223 20.729 30.084 20.729C32.2453 20.729 33.9976 18.9767 33.9976 16.8155C33.9976 14.6543 32.2453 12.902 30.084 12.902ZM30.084 18.7722C29.003 18.7722 28.1273 17.8961 28.1273 16.8155C28.1273 15.7349 29.003 14.8587 30.084 14.8587C31.1647 14.8587 32.0408 15.7349 32.0408 16.8155C32.0408 17.8961 31.1647 18.7722 30.084 18.7722Z" fill="#F7654A"/>
</g>
<defs>
<clipPath id="clip0">
<rect width="60" height="60" fill="white"/>
</clipPath>
</defs>
</svg>
