<svg width="60" height="60" viewBox="0 0 60 60" fill="none" xmlns="http://www.w3.org/2000/svg">
<g clip-path="url(#clip0)">
<path d="M59.8666 52.4398C59.6787 52.1799 59.3775 52.0261 59.0573 52.0261H48.0933V23.1212C48.0933 22.5708 47.647 22.1245 47.0966 22.1245H40.6885C41.0642 21.761 41.3985 21.3565 41.6852 20.9185C42.9749 18.926 43.1584 16.4133 42.1719 14.2544L36.0426 0.780662C35.8665 0.392291 35.4625 0.159658 35.0381 0.201025C34.6133 0.24288 34.2624 0.549975 34.165 0.965113L33.3878 4.27259C32.5346 7.89495 30.7748 11.2409 28.2733 13.9965C28.2042 14.0734 28.1472 14.1605 28.1039 14.2544C27.1174 16.4133 27.3009 18.926 28.5906 20.9185C28.8768 21.3565 29.2111 21.761 29.5873 22.1245H23.1753C22.6249 22.1245 22.1786 22.5708 22.1786 23.1212V52.0261H12.2114V43.0556C12.2109 42.5743 11.8663 42.1621 11.3928 42.076L0.428831 40.0825L0.072094 42.0419L10.2179 43.8879V53.0229H10.2238C10.2218 53.1299 10.2369 53.236 10.2695 53.3377L12.2629 59.3181C12.3987 59.7249 12.7793 59.9999 13.2081 59.9999H57.0638C57.4926 59.9999 57.8732 59.7249 58.0085 59.3181L60.0019 53.3377C60.1036 53.034 60.0535 52.7002 59.8666 52.4398ZM30.2638 19.8391C29.3717 18.4593 29.2199 16.7277 29.8584 15.2132C32.5283 12.2303 34.4084 8.62497 35.3262 4.72764L35.4357 4.26529L40.3507 15.0798C41.0511 16.6221 40.9206 18.4145 40.0037 19.8386C39.0868 21.2626 37.5095 22.124 35.8154 22.1245H34.4561C32.7605 22.1284 31.1807 21.2665 30.2657 19.8391H30.2638ZM46.0999 24.1179V32.1618C45.3197 31.8382 44.4413 31.8498 43.6699 32.1934C42.4678 32.7784 42.1057 34.0803 41.7859 35.2274C41.4949 36.2723 41.2686 36.9697 40.8043 37.1211C40.4052 37.2569 39.0518 36.7366 37.4852 36.1404C36.8101 35.8825 36.34 35.6712 35.9901 35.5116C35.3851 35.1461 34.6731 34.9987 33.9728 35.0931C32.5702 35.3359 31.7311 36.5225 30.3387 38.4896C29.9051 39.0985 29.5055 39.7306 29.1425 40.3838C28.9668 40.7425 28.7337 41.071 28.4529 41.3552C27.515 42.2594 26.3231 42.8551 25.0368 43.062C24.7526 43.1009 24.466 43.1184 24.1788 43.1145V24.1179H46.0999ZM24.172 45.107C24.1978 45.107 24.2236 45.1128 24.2494 45.1128C24.6115 45.1124 24.9731 45.0866 25.3313 45.0355C27.04 44.759 28.6227 43.9638 29.8642 42.7568C30.2696 42.3461 30.6093 41.8755 30.8717 41.3615C31.2026 40.7663 31.5666 40.191 31.9623 39.6372C33.1162 38.0063 33.7445 37.1522 34.3115 37.0534C34.4638 37.0237 34.4921 37.0228 35.1686 37.3265C35.5487 37.4982 36.0499 37.7255 36.7756 38.0005C39.1574 38.9072 40.3556 39.3671 41.4341 39.0089C42.9413 38.5018 43.3657 36.979 43.7064 35.7569C43.923 34.9763 44.1483 34.1708 44.5459 33.9757C44.6943 33.9027 45.128 33.8092 46.0999 34.3173V52.0261H24.172V45.107ZM56.345 58.0065H13.9264L12.5978 54.0196H57.6736L56.345 58.0065Z" fill="#F7654A"/>
<path d="M16.5083 6.07717L19.0297 7.33719L20.2898 9.85917C20.4582 10.1974 20.8037 10.4111 21.1818 10.4111C21.5595 10.4111 21.9051 10.1974 22.0739 9.85917L23.3335 7.33719L25.8554 6.07717C26.1937 5.90878 26.4073 5.56324 26.4073 5.18509C26.4073 4.80743 26.1937 4.46188 25.8554 4.29349L23.3335 3.03348L22.0788 0.506634C21.8914 0.192725 21.5527 0 21.1867 0C20.8207 0 20.482 0.192725 20.2946 0.506634L19.0346 3.02861L16.5131 4.28814C16.1749 4.45702 15.9607 4.80256 15.9607 5.18022C15.9607 5.55837 16.1749 5.90392 16.5131 6.07231L16.5083 6.07717ZM20.2177 4.66191C20.4114 4.56652 20.5677 4.40981 20.6635 4.2166L21.1818 3.18094L21.7002 4.2166C21.7955 4.40981 21.9523 4.56652 22.1455 4.66191L23.1811 5.18022L22.1455 5.69854C21.9523 5.79441 21.7955 5.95064 21.7002 6.14434L21.1818 7.17999L20.6635 6.14434C20.5677 5.95064 20.4114 5.79441 20.2177 5.69854L19.1821 5.18022L20.2177 4.66191Z" fill="#F7654A"/>
<path d="M46.4099 8.07058L48.9314 9.3306L50.1914 11.8526C50.3598 12.1908 50.7053 12.4045 51.0835 12.4045C51.4611 12.4045 51.8067 12.1908 51.9756 11.8526L53.2351 9.3306L55.7571 8.07058C56.0953 7.90219 56.309 7.55665 56.309 7.1785C56.309 6.80083 56.0953 6.45529 55.7571 6.2869L53.2351 5.02689L51.9804 2.50004C51.7931 2.18613 51.4543 1.99341 51.0883 1.99341C50.7224 1.99341 50.3836 2.18613 50.1963 2.50004L48.9362 5.02202L46.4147 6.28155C46.0765 6.45043 45.8624 6.79597 45.8624 7.17363C45.8624 7.55178 46.0765 7.89733 46.4147 8.06572L46.4099 8.07058ZM50.1194 6.65532C50.3131 6.55993 50.4693 6.40322 50.5652 6.21001L51.0835 5.17435L51.6018 6.21001C51.6972 6.40322 51.8539 6.55993 52.0471 6.65532L53.0828 7.17363L52.0471 7.69195C51.8539 7.78782 51.6972 7.94405 51.6018 8.13775L51.0835 9.1734L50.5652 8.13775C50.4693 7.94405 50.3131 7.78782 50.1194 7.69195L49.0837 7.17363L50.1194 6.65532Z" fill="#F7654A"/>
</g>
<defs>
<clipPath id="clip0">
<rect width="60" height="60" fill="white"/>
</clipPath>
</defs>
</svg>
