<svg width="18" height="15" viewBox="0 0 18 15" fill="none" xmlns="http://www.w3.org/2000/svg">
<path d="M18 4.70312V12.6786C18 13.1205 17.8426 13.4989 17.5279 13.8136C17.2132 14.1283 16.8348 14.2857 16.3929 14.2857H1.60714C1.16518 14.2857 0.78683 14.1283 0.472098 13.8136C0.157366 13.4989 0 13.1205 0 12.6786V4.70312C0.294643 5.03125 0.632813 5.32254 1.01451 5.57701C3.43862 7.22433 5.10268 8.37946 6.0067 9.04241C6.38839 9.32366 6.69643 9.54464 6.9308 9.70536C7.17188 9.85937 7.48996 10.0201 7.88504 10.1875C8.28013 10.3482 8.64844 10.4286 8.98996 10.4286H9H9.01005C9.35156 10.4286 9.71987 10.3482 10.115 10.1875C10.51 10.0201 10.8248 9.85937 11.0592 9.70536C11.3002 9.54464 11.6116 9.32366 11.9933 9.04241C13.1317 8.21875 14.7991 7.06362 16.9955 5.57701C17.3772 5.31585 17.7121 5.02455 18 4.70312ZM18 1.75C18 2.27902 17.8359 2.7846 17.5078 3.26674C17.1797 3.74888 16.7712 4.16071 16.2824 4.50223C13.7645 6.25 12.1975 7.33817 11.5815 7.76674C11.5145 7.81362 11.3705 7.91741 11.1496 8.07812C10.9353 8.23214 10.7545 8.35937 10.6071 8.45982C10.4665 8.55357 10.2924 8.66071 10.0848 8.78125C9.88393 8.90179 9.69308 8.99219 9.51228 9.05246C9.33147 9.11272 9.16406 9.14286 9.01005 9.14286H9H8.98996C8.83594 9.14286 8.66853 9.11272 8.48772 9.05246C8.30692 8.99219 8.11272 8.90179 7.90513 8.78125C7.70424 8.66071 7.53013 8.55357 7.38281 8.45982C7.24219 8.35937 7.06138 8.23214 6.8404 8.07812C6.62612 7.91741 6.48549 7.81362 6.41853 7.76674C5.80915 7.33817 4.93192 6.72879 3.78683 5.93862C2.64174 5.14174 1.95536 4.66295 1.72768 4.50223C1.3125 4.22098 0.920759 3.83594 0.552455 3.3471C0.184152 2.85156 0 2.39286 0 1.97098C0 1.44866 0.137277 1.01339 0.41183 0.665178C0.69308 0.316964 1.09152 0.142857 1.60714 0.142857H16.3929C16.8281 0.142857 17.2031 0.300223 17.5179 0.614955C17.8393 0.929687 18 1.30804 18 1.75Z" fill="black"/>
</svg>
