<svg width="37" height="49" viewBox="0 0 37 49" fill="none" xmlns="http://www.w3.org/2000/svg">
<path d="M18.5 0C8.46875 0 0.5 8.15625 0.5 18C0.5 24.75 2.65625 26.8125 14.6562 45.9375C16.4375 48.75 20.4688 48.75 22.25 45.9375C34.25 26.8125 36.5 24.75 36.5 18C36.5 8.0625 28.3438 0 18.5 0ZM18.5 43.5C6.5 24.375 5 23.1562 5 18C5 10.5938 11 4.5 18.5 4.5C25.9062 4.5 32 10.5938 32 18C32 23.1562 30.5 24.1875 18.5 43.5ZM11 18C11 22.2188 14.2812 25.5 18.5 25.5C22.625 25.5 26 22.2188 26 18C26 13.875 22.625 10.5 18.5 10.5C14.2812 10.5 11 13.875 11 18Z" fill="#F7654A"/>
</svg>
