<svg width="60" height="60" viewBox="0 0 60 60" fill="none" xmlns="http://www.w3.org/2000/svg">
<g clip-path="url(#clip0)">
<path d="M45 16C43.2549 16.0146 41.5391 16.4521 40 17.2749C38.2046 15.9565 36.165 15.0068 34 14.4819V11.8301C33.9995 10.124 34.3984 8.44141 35.165 6.91699L37.895 1.44678C38.0498 1.13672 38.0332 0.768555 37.8511 0.474121C37.6685 0.179199 37.3467 0 37 0H33.4702C31.5801 0.0126953 29.855 1.07959 29 2.76514L27.3779 6.01904C26.4717 7.82178 25.9995 9.81201 26 11.8301V14.4819C23.835 15.0068 21.7954 15.9565 20 17.2749C18.4609 16.4521 16.7451 16.0146 15 16C6.729 16 0 25.8691 0 38C0 50.1309 6.729 60 15 60C17.3745 59.9658 19.6782 59.188 21.5869 57.7759C26.8037 60.7412 33.1963 60.7412 38.4131 57.7759C40.3223 59.188 42.626 59.9658 45 60C53.271 60 60 50.1309 60 38C60 25.8691 53.271 16 45 16ZM28 11.8301C27.9995 10.123 28.3989 8.43994 29.166 6.91504L30.7832 3.66016C31.2974 2.64746 32.3345 2.00684 33.4702 2H35.3828L33.3779 6.01904C32.4717 7.82178 31.9995 9.81201 32 11.8301V14.1201C30.6714 13.96 29.3286 13.96 28 14.1201V11.8301ZM45 58C43.3013 57.9854 41.6411 57.4907 40.2109 56.5732C40.9731 56.0044 41.687 55.374 42.3452 54.688C42.7251 54.2871 42.708 53.6538 42.3071 53.2739C41.9062 52.894 41.2729 52.9111 40.8931 53.312C38.0601 56.3047 34.1206 57.9995 30 57.9995C25.8794 57.9995 21.9399 56.3047 19.1069 53.312C18.7271 52.9111 18.0938 52.894 17.6929 53.2739C17.292 53.6538 17.2749 54.2871 17.6553 54.688C18.3135 55.3735 19.0273 56.0039 19.7891 56.5732C18.3589 57.4902 16.6987 57.9849 15 58C7.83203 58 2 49.0278 2 38C2 26.9722 7.83203 18 15 18C16.1372 18.0059 17.2627 18.2363 18.311 18.6768C17.7456 19.2075 17.2168 19.7754 16.728 20.377C16.4966 20.6548 16.4331 21.0361 16.562 21.374C16.6914 21.7119 16.9927 21.9536 17.3506 22.0063C17.7085 22.0591 18.0669 21.9146 18.2881 21.6279C18.9917 20.7495 19.7915 19.9521 20.6719 19.251L20.7002 19.229C26.1533 14.9253 33.8472 14.9253 39.2998 19.229L39.3291 19.251C40.2104 19.9531 41.0103 20.7515 41.7139 21.6309C42.0591 22.0625 42.6885 22.1323 43.1201 21.7871C43.5513 21.4419 43.6211 20.8125 43.2759 20.3809C42.7856 19.7793 42.2554 19.2114 41.689 18.6812C42.7373 18.2388 43.8623 18.0073 45 18C52.168 18 58 26.9722 58 38C58 49.0278 52.168 58 45 58Z" fill="#F7654A"/>
<path d="M12.564 36.418C12.8857 36.6821 13.3374 36.7192 13.6982 36.5112L14.6328 35.9712L14.481 36.5371C14.3384 37.0703 14.6548 37.6182 15.188 37.7612C18.375 38.6172 21.7271 37.1318 23.2329 34.1958C24.7393 31.2603 23.9907 27.6709 21.436 25.582C21.1143 25.3179 20.6626 25.2808 20.3022 25.4888L19.3672 26.0288L19.519 25.4629C19.6616 24.9297 19.3452 24.3818 18.812 24.2388C15.0781 23.2383 11.2398 25.4541 10.2393 29.188C9.52979 31.8452 10.4385 34.6724 12.564 36.418ZM12.1699 29.7061C12.7866 27.4116 14.9302 25.8662 17.3023 26.0059L16.811 27.8408C16.7065 28.2314 16.8477 28.6465 17.168 28.8926C17.4888 29.1387 17.9258 29.1675 18.2759 28.9658L20.6611 27.5898C22.0562 29.0864 22.3989 31.2822 21.5259 33.1328C20.6528 34.9834 18.7402 36.1152 16.6982 35.9902L17.189 34.1548C17.2935 33.7646 17.1528 33.3496 16.832 33.1035C16.5117 32.8574 16.0742 32.8281 15.7241 33.0298L13.3389 34.4058C12.169 33.1436 11.7275 31.3696 12.1699 29.7061Z" fill="#F7654A"/>
<path d="M39.5 37.0611C41.1059 37.9937 43.0181 38.2457 44.811 37.7613C45.3442 37.6183 45.6606 37.0704 45.5181 36.5372L45.3662 35.9713L46.3013 36.5113C46.6616 36.7193 47.1133 36.6822 47.435 36.4181C49.9892 34.3292 50.7383 30.7398 49.2319 27.8043C47.7256 24.8682 44.3735 23.3829 41.187 24.2389C40.6538 24.3819 40.3374 24.9298 40.48 25.463L40.6318 26.0289L39.6973 25.4889C39.3364 25.2808 38.8848 25.318 38.563 25.5821C36.7842 27.0387 35.8345 29.276 36.0215 31.5675C36.2085 33.8585 37.5088 35.9122 39.5 37.0611ZM39.3379 27.5919L41.7231 28.9679C42.0732 29.1695 42.5102 29.1407 42.831 28.8946C43.1514 28.6485 43.2925 28.2335 43.188 27.8429L42.7002 26.0079C44.7422 25.8829 46.6548 27.0147 47.5278 28.8653C48.4009 30.7159 48.0581 32.9112 46.6631 34.4083L44.2778 33.0323C43.9277 32.8307 43.4907 32.8595 43.1699 33.1056C42.8496 33.3517 42.7085 33.7667 42.813 34.1573L43.3042 35.9923C41.2617 36.1173 39.3496 34.9854 38.4766 33.1349C37.6035 31.2843 37.9458 29.089 39.3408 27.5919H39.3379Z" fill="#F7654A"/>
<path d="M54.5429 39.872C54.4238 39.6044 54.1928 39.4028 53.9116 39.3202C53.6303 39.2372 53.3271 39.2822 53.082 39.4428C50.5288 41.1171 45.768 42.518 40.0171 43.289C39.7324 43.3271 39.4775 43.4863 39.3183 43.725C39.1587 43.9643 39.1098 44.2602 39.1841 44.538L39.4839 45.6728L37.5459 46.1938L37.084 44.4618C36.9594 43.9955 36.52 43.685 36.039 43.7231C32.0029 44.04 27.9502 44.0829 23.9082 43.852C23.4321 43.8168 22.9995 44.1283 22.8818 44.5907L22.4521 46.1908L20.5141 45.6699L20.7539 44.7758C20.8301 44.4936 20.7783 44.1918 20.6128 43.9506C20.4477 43.7094 20.185 43.5527 19.894 43.5219C15.2915 43.162 10.7739 42.082 6.50584 40.3217C6.23387 40.1933 5.91795 40.1938 5.64646 40.3241C5.37449 40.4545 5.17625 40.7001 5.10594 40.9931C5.03025 41.3232 4.99461 41.6611 4.99998 41.9999C4.99998 47.7597 14.7319 52.4448 27.6841 52.9491C27.9887 53.0507 28.3242 52.9994 28.5849 52.8115C28.8457 52.6235 29 52.3212 29 51.9999V49.9999H31V51.9999C31 52.3212 31.1543 52.6235 31.415 52.8115C31.6758 52.9994 32.0112 53.0507 32.3159 52.9491C45.268 52.4448 55 47.7597 55 41.9999C54.9995 41.2665 54.8437 40.5409 54.5429 39.872ZM33 50.9159V48.9999C33 48.4477 32.5522 47.9999 32 47.9999H28C27.4477 47.9999 27 48.4477 27 48.9999V50.9159C16.5141 50.3578 8.02 46.8461 7.08494 42.749C10.7778 44.0829 14.6181 44.9667 18.5229 45.3808L18.3232 46.12C18.1792 46.6532 18.4956 47.2026 19.0288 47.3461L22.8989 48.3862C23.1553 48.455 23.4287 48.4194 23.6587 48.2866C23.8887 48.1542 24.0561 47.9355 24.125 47.6791L24.604 45.893C28.1909 46.0658 31.7846 46.0278 35.3672 45.7787L35.873 47.6791C35.9414 47.9355 36.1094 48.1542 36.3393 48.287C36.5693 48.4199 36.8428 48.456 37.0991 48.3871L40.9692 47.3471C41.5014 47.2035 41.8174 46.6557 41.6748 46.123L41.4062 45.1117C45.4179 44.6274 49.3281 43.5141 52.9931 41.8119C52.9931 41.8759 52.999 41.9399 52.999 42.0048C53 46.4101 44.1201 50.3241 33 50.9159Z" fill="#F7654A"/>
</g>
<defs>
<clipPath id="clip0">
<rect width="60" height="60" fill="white"/>
</clipPath>
</defs>
</svg>
