<svg width="49" height="48" viewBox="0 0 49 48" fill="none" xmlns="http://www.w3.org/2000/svg">
<path d="M45.125 2.15625L36.3125 0.1875C34.25 -0.28125 32.1875 0.75 31.4375 2.625L27.3125 12.1875C26.5625 13.875 27.0312 15.9375 28.5312 17.1562L32.2812 20.25C29.6562 25.125 25.5312 29.1562 20.6562 31.875L17.5625 28.125C16.3438 26.625 14.2812 26.1562 12.5938 26.9062L3.03125 30.9375C1.15625 31.7812 0.125 33.8438 0.59375 35.9062L2.5625 44.7188C3.03125 46.6875 4.8125 48 6.78125 48C29.75 48 48.5 29.4375 48.5 6.375C48.5 4.40625 47.0938 2.625 45.125 2.15625ZM6.96875 43.5L5 35.0625L14.1875 31.125L19.4375 37.5C28.7188 33.0938 33.5 28.3125 37.9062 19.0312L31.5312 13.7812L35.4688 4.59375L44 6.5625C43.9062 26.9062 27.3125 43.4062 6.96875 43.5Z" fill="#F7654A"/>
</svg>
