<svg width="60" height="60" viewBox="0 0 60 60" fill="none" xmlns="http://www.w3.org/2000/svg">
<g clip-path="url(#clip0)">
<path d="M45.4044 53.4127C42.5036 50.9471 41.0991 47.1466 41.6992 43.3874L44.8865 22.9282C45.084 21.6589 45.1842 20.376 45.1851 19.0917V18.9521C45.1759 12.8679 42.2502 7.15661 37.318 3.59389C32.3854 0.0311625 26.0443 -0.950703 20.265 0.953211C12.5176 3.49711 7.29602 10.748 7.33833 18.9025V22.936C7.33833 31.5593 7.33833 47.61 15.6825 54.5949C21.1914 59.21 29.9358 59.9998 38.2133 59.9998C40.4762 59.9998 42.7035 59.9415 44.8189 59.8855C46.719 59.8345 48.5168 59.7868 50.165 59.7868H52.863L45.4044 53.4127ZM44.762 57.8946C35.2444 58.1484 23.3983 58.4611 16.9615 53.0679C9.33027 46.6802 9.33027 31.2344 9.33027 22.936V18.9025C9.28261 11.62 13.9376 5.13793 20.8539 2.85615C22.6003 2.31148 24.4191 2.03234 26.2491 2.02893C30.7416 2.02018 35.0533 3.80008 38.2323 6.97473C41.4113 10.1499 43.1961 14.4591 43.1932 18.9521V19.0917C43.1932 20.2734 43.1018 21.4537 42.9194 22.6213L39.7321 43.0815C39.025 47.524 40.6862 52.0141 44.1147 54.9266L47.5078 57.827C46.6173 57.845 45.703 57.8688 44.762 57.8946Z" fill="#F7654A"/>
<path d="M18.294 12.9763C16.0968 12.9763 14.3101 15.2104 14.3101 17.9562C14.3101 20.7024 16.0968 22.936 18.294 22.936C20.4912 22.936 22.2779 20.7024 22.2779 17.9562C22.2779 15.2104 20.4912 12.9763 18.294 12.9763ZM18.294 20.9441C17.2144 20.9441 16.3021 19.5756 16.3021 17.9562C16.3021 16.3367 17.2144 14.9683 18.294 14.9683C19.3736 14.9683 20.2859 16.3367 20.2859 17.9562C20.2859 19.5756 19.3736 20.9441 18.294 20.9441Z" fill="#F7654A"/>
<path d="M34.2295 12.9763C32.0323 12.9763 30.2456 15.2104 30.2456 17.9562C30.2456 20.7024 32.0323 22.936 34.2295 22.936C36.4266 22.936 38.2133 20.7024 38.2133 17.9562C38.2133 15.2104 36.4266 12.9763 34.2295 12.9763ZM34.2295 20.9441C33.1498 20.9441 32.2375 19.5756 32.2375 17.9562C32.2375 16.3367 33.1498 14.9683 34.2295 14.9683C35.3091 14.9683 36.2214 16.3367 36.2214 17.9562C36.2214 19.5756 35.3091 20.9441 34.2295 20.9441Z" fill="#F7654A"/>
<path d="M26.2617 31.7295L22.7403 28.2076L21.332 29.616L25.5575 33.842C25.9466 34.2306 26.5769 34.2306 26.9659 33.842L31.192 29.616L29.7836 28.2076L26.2617 31.7295Z" fill="#F7654A"/>
</g>
<defs>
<clipPath id="clip0">
<rect width="60" height="60" fill="white"/>
</clipPath>
</defs>
</svg>
