<svg width="49" height="36" viewBox="0 0 49 36" fill="none" xmlns="http://www.w3.org/2000/svg">
<path d="M44 0H5C2.46875 0 0.5 2.0625 0.5 4.5V31.5C0.5 34.0312 2.46875 36 5 36H44C46.4375 36 48.5 34.0312 48.5 31.5V4.5C48.5 2.0625 46.4375 0 44 0ZM44 4.5V8.34375C41.8438 10.125 38.4688 12.75 31.3438 18.375C29.75 19.5938 26.6562 22.5938 24.5 22.5C22.25 22.5938 19.1562 19.5938 17.5625 18.375C10.4375 12.75 7.0625 10.125 5 8.34375V4.5H44ZM5 31.5V14.1562C7.0625 15.8438 10.1562 18.2812 14.75 21.9375C16.8125 23.5312 20.4688 27.0938 24.5 27C28.4375 27.0938 32 23.5312 34.1562 21.9375C38.75 18.2812 41.8438 15.8438 44 14.1562V31.5H5Z" fill="#F7654A"/>
</svg>
